# 3ds Max Wavefront OBJ Exporter v0.99 - (c)2007 guruware
# File Created: 29.03.2025 18:37:32

mtllib cofre.mtl

#
# object Cofre
#

v  0.1669 -0.2623 0.9129
v  0.1690 -0.2395 0.8647
v  -0.0028 -0.2387 0.8754
v  -0.0028 -0.2613 0.9236
v  0.3251 -0.2436 0.8429
v  0.3481 -0.2035 0.7480
v  0.1737 -0.1978 0.7695
v  0.4009 -0.2696 0.8666
v  0.4118 -0.2483 0.8242
v  0.3151 -0.2657 0.8901
v  0.4471 -0.2466 0.8155
v  0.4839 -0.2046 0.7280
v  0.4665 -0.2089 0.7314
v  0.4340 -0.2482 0.8187
v  0.4404 -0.2105 0.7357
v  0.5436 -0.1536 0.5826
v  0.5223 -0.1578 0.5858
v  0.3776 -0.1556 0.6080
v  0.3947 -0.1262 0.5218
v  0.1819 -0.1263 0.5503
v  0.1789 -0.1533 0.6344
v  0.4902 -0.1597 0.5908
v  0.5196 -0.1289 0.5027
v  -0.0028 -0.1265 0.5628
v  -0.0028 -0.1531 0.6464
v  0.5471 -0.0996 0.4160
v  0.5613 -0.0849 0.3662
v  0.4166 -0.0811 0.3842
v  0.4096 -0.0965 0.4338
v  0.5811 -0.0659 0.3054
v  0.4256 -0.0621 0.3249
v  0.1844 -0.0975 0.4597
v  0.1854 -0.0821 0.4061
v  -0.0028 -0.0828 0.4166
v  -0.0028 -0.0981 0.4714
v  0.1875 -0.0630 0.3452
v  -0.0019 -0.0648 0.3557
v  0.4040 -0.1086 0.4703
v  0.1835 -0.1096 0.4987
v  0.4068 -0.1025 0.4520
v  0.1839 -0.1036 0.4792
v  -0.0028 -0.1101 0.5111
v  -0.0028 -0.1041 0.4913
v  0.5363 -0.1111 0.4515
v  0.5417 -0.1054 0.4338
v  0.4331 -0.0414 0.2333
v  0.1882 -0.0424 0.2573
v  0.5918 -0.1183 0.4927
v  0.6114 -0.1007 0.4425
v  0.5975 -0.1053 0.4440
v  0.5783 -0.1229 0.4945
v  0.6047 -0.1147 0.4911
v  0.6244 -0.0972 0.4412
v  0.6303 -0.0916 0.4232
v  0.6362 -0.0860 0.4052
v  0.6232 -0.0895 0.4068
v  0.6173 -0.0951 0.4246
v  0.6094 -0.0941 0.4084
v  0.6035 -0.0997 0.4262
v  0.6389 -0.0754 0.3544
v  0.6251 -0.0799 0.3566
v  0.6518 -0.0721 0.3519
v  0.6736 -0.0554 0.2763
v  0.6607 -0.0582 0.2795
v  0.6468 -0.0621 0.2822
v  0.5057 -0.1959 0.7230
v  0.5686 -0.1450 0.5786
v  0.5561 -0.1487 0.5806
v  0.4944 -0.1996 0.7258
v  0.4547 -0.2445 0.8136
v  0.4386 -0.2703 0.8556
v  0.4325 -0.2707 0.8573
v  0.4452 -0.2702 0.8537
v  0.4629 -0.2430 0.8111
v  0.4386 -0.0224 0.1348
v  0.1887 -0.0227 0.1662
v  0.6028 -0.0443 0.2105
v  0.6211 -0.0247 0.1038
v  -0.0019 -0.0463 0.2703
v  -0.0019 -0.0278 0.1816
v  0.1892 0.0086 -0.0101
v  0.1890 -0.0064 0.0856
v  0.4410 -0.0081 0.0462
v  0.4416 0.0033 -0.0599
v  0.6876 -0.0399 0.1834
v  0.6732 -0.0426 0.1859
v  0.7003 -0.0380 0.1807
v  0.7272 -0.0218 0.0669
v  0.7145 -0.0231 0.0694
v  0.6988 -0.0250 0.0731
v  0.6221 -0.0651 0.2868
v  0.6473 -0.0442 0.1909
v  0.6702 -0.0254 0.0807
v  0.4215 -0.2705 0.8603
v  0.5552 -0.1270 0.4976
v  0.5853 -0.0980 0.4112
v  0.6009 -0.0836 0.3604
v  0.5736 -0.1093 0.4468
v  0.5795 -0.1036 0.4290
v  0.7190 -0.0124 -0.0337
v  0.7387 -0.0040 -0.1914
v  0.6980 -0.0044 -0.1644
v  0.6858 -0.0126 -0.0192
v  -0.0028 -0.1968 0.7805
v  -0.0019 -0.0100 0.1010
v  0.6306 -0.0114 0.0005
v  0.6357 -0.0027 -0.1300
v  0.7602 -0.0008 -0.2195
v  0.7363 -0.0103 -0.0530
v  0.7493 -0.0086 -0.0570
v  0.7752 0.0048 -0.2372
v  -0.0019 0.0095 0.0032
v  0.4197 -0.2739 0.8666
v  0.4303 -0.2743 0.8636
v  0.3992 -0.2728 0.8730
v  0.4362 -0.2742 0.8619
v  0.4425 -0.2743 0.8601
v  0.3135 -0.2691 0.8972
v  0.1666 -0.2658 0.9202
v  -0.0028 -0.2647 0.9308
v  0.0092 -0.2125 0.8253
v  0.0138 -0.2176 0.8362
v  0.0170 -0.2176 0.8363
v  0.0142 -0.2126 0.8256
v  -0.0028 -0.2182 0.8375
v  -0.0028 -0.2538 0.9136
v  -0.0016 -0.2529 0.9117
v  0.0130 -0.2180 0.8372
v  -0.0028 -0.2108 0.8216
v  0.0041 -0.2108 0.8216
v  0.0042 -0.2077 0.8152
v  -0.0028 -0.2077 0.8152
v  0.0163 -0.2112 0.8226
v  0.0164 -0.2082 0.8161
v  0.0276 -0.2121 0.8245
v  0.0277 -0.2090 0.8179
v  0.0375 -0.2133 0.8272
v  0.0376 -0.2102 0.8204
v  0.0492 -0.2152 0.8312
v  0.0525 -0.2125 0.8253
v  -0.0003 -0.2173 0.8357
v  0.0132 -0.2176 0.8362
v  0.0219 -0.2178 0.8366
v  0.0200 -0.2129 0.8263
v  0.0265 -0.2180 0.8372
v  0.0247 -0.2133 0.8270
v  0.0280 -0.2182 0.8376
v  0.0286 -0.2136 0.8278
v  0.0296 -0.2185 0.8383
v  0.0311 -0.2139 0.8284
v  0.0306 -0.2189 0.8390
v  0.0330 -0.2141 0.8288
v  0.0317 -0.2195 0.8402
v  0.0348 -0.2143 0.8293
v  0.0322 -0.2198 0.8410
v  0.0381 -0.2148 0.8302
v  0.0325 -0.2201 0.8417
v  0.0420 -0.2154 0.8315
v  0.0327 -0.2205 0.8425
v  0.0458 -0.2160 0.8329
v  0.0329 -0.2210 0.8436
v  0.0474 -0.2164 0.8336
v  0.0360 -0.2204 0.8423
v  0.0458 -0.2173 0.8357
v  0.0391 -0.2197 0.8407
v  0.0435 -0.2183 0.8377
v  0.0296 -0.2318 0.8330
v  0.0306 -0.2321 0.8337
v  0.0276 -0.2253 0.8192
v  0.0375 -0.2266 0.8218
v  0.0492 -0.2284 0.8259
v  0.0525 -0.2257 0.8200
v  -0.0016 -0.2661 0.9064
v  0.0130 -0.2313 0.8319
v  0.0138 -0.2308 0.8309
v  0.0170 -0.2308 0.8310
v  0.0325 -0.2334 0.8364
v  0.0327 -0.2338 0.8372
v  0.0200 -0.2261 0.8210
v  0.0142 -0.2258 0.8203
v  0.0219 -0.2310 0.8313
v  0.0265 -0.2313 0.8319
v  0.0329 -0.2342 0.8382
v  0.0360 -0.2337 0.8370
v  0.0458 -0.2305 0.8304
v  0.0474 -0.2296 0.8283
v  0.0391 -0.2329 0.8354
v  0.0435 -0.2315 0.8324
v  0.0280 -0.2315 0.8323
v  0.0163 -0.2244 0.8173
v  -0.0028 -0.2240 0.8163
v  0.0041 -0.2240 0.8163
v  -0.1724 -0.2623 0.9129
v  -0.1745 -0.2395 0.8647
v  -0.3306 -0.2436 0.8429
v  -0.1792 -0.1978 0.7695
v  -0.3536 -0.2035 0.7480
v  -0.4064 -0.2696 0.8666
v  -0.3206 -0.2657 0.8901
v  -0.4173 -0.2483 0.8242
v  -0.4526 -0.2466 0.8155
v  -0.4395 -0.2482 0.8187
v  -0.4720 -0.2089 0.7314
v  -0.4894 -0.2046 0.7280
v  -0.4459 -0.2105 0.7357
v  -0.5278 -0.1578 0.5858
v  -0.5491 -0.1536 0.5826
v  -0.1874 -0.1263 0.5503
v  -0.4002 -0.1262 0.5218
v  -0.3831 -0.1556 0.6080
v  -0.1844 -0.1533 0.6344
v  -0.5251 -0.1289 0.5027
v  -0.4957 -0.1597 0.5908
v  -0.5526 -0.0996 0.4160
v  -0.4151 -0.0965 0.4338
v  -0.4221 -0.0811 0.3842
v  -0.5668 -0.0849 0.3662
v  -0.4293 -0.0621 0.3249
v  -0.5848 -0.0659 0.3054
v  -0.1899 -0.0975 0.4597
v  -0.1910 -0.0821 0.4061
v  -0.1912 -0.0630 0.3452
v  -0.1890 -0.1096 0.4987
v  -0.4095 -0.1086 0.4703
v  -0.4123 -0.1025 0.4520
v  -0.1894 -0.1036 0.4792
v  -0.5418 -0.1111 0.4515
v  -0.5472 -0.1054 0.4338
v  -0.1919 -0.0424 0.2573
v  -0.4368 -0.0414 0.2333
v  -0.6031 -0.1053 0.4440
v  -0.6169 -0.1007 0.4425
v  -0.5973 -0.1183 0.4927
v  -0.5838 -0.1229 0.4945
v  -0.6299 -0.0972 0.4412
v  -0.6102 -0.1147 0.4911
v  -0.6287 -0.0895 0.4068
v  -0.6417 -0.0860 0.4052
v  -0.6358 -0.0916 0.4232
v  -0.6228 -0.0951 0.4246
v  -0.6149 -0.0941 0.4084
v  -0.6090 -0.0997 0.4262
v  -0.6306 -0.0799 0.3566
v  -0.6444 -0.0754 0.3544
v  -0.6574 -0.0721 0.3519
v  -0.6663 -0.0582 0.2795
v  -0.6791 -0.0554 0.2763
v  -0.6523 -0.0621 0.2822
v  -0.5112 -0.1959 0.7230
v  -0.4999 -0.1996 0.7258
v  -0.5616 -0.1487 0.5806
v  -0.5741 -0.1450 0.5786
v  -0.4602 -0.2445 0.8136
v  -0.4441 -0.2703 0.8556
v  -0.4380 -0.2707 0.8573
v  -0.4684 -0.2430 0.8111
v  -0.4507 -0.2702 0.8537
v  -0.1924 -0.0227 0.1662
v  -0.4423 -0.0224 0.1348
v  -0.6065 -0.0443 0.2105
v  -0.6248 -0.0247 0.1038
v  -0.4447 -0.0081 0.0462
v  -0.1927 -0.0064 0.0856
v  -0.1929 0.0086 -0.0101
v  -0.4453 0.0033 -0.0599
v  -0.6787 -0.0426 0.1859
v  -0.6931 -0.0399 0.1834
v  -0.7058 -0.0380 0.1807
v  -0.7201 -0.0231 0.0694
v  -0.7327 -0.0218 0.0669
v  -0.7043 -0.0250 0.0731
v  -0.6519 -0.0442 0.2025
v  -0.6276 -0.0651 0.2868
v  -0.6748 -0.0254 0.0923
v  -0.4271 -0.2705 0.8603
v  -0.5607 -0.1270 0.4976
v  -0.6064 -0.0836 0.3604
v  -0.5908 -0.0980 0.4112
v  -0.5791 -0.1093 0.4468
v  -0.5850 -0.1036 0.4290
v  -0.7227 -0.0124 -0.0337
v  -0.6895 -0.0126 -0.0192
v  -0.7017 -0.0044 -0.1644
v  -0.7424 -0.0040 -0.1914
v  -0.6343 -0.0114 0.0005
v  -0.6394 -0.0027 -0.1300
v  -0.7548 -0.0086 -0.0570
v  -0.7418 -0.0103 -0.0530
v  -0.7657 -0.0008 -0.2195
v  -0.7807 0.0048 -0.2372
v  -0.4252 -0.2739 0.8666
v  -0.4358 -0.2743 0.8636
v  -0.4047 -0.2728 0.8730
v  -0.4417 -0.2742 0.8619
v  -0.4480 -0.2743 0.8601
v  -0.3190 -0.2691 0.8972
v  -0.1721 -0.2658 0.9202
v  -0.0147 -0.2125 0.8253
v  -0.0197 -0.2126 0.8256
v  -0.0225 -0.2176 0.8363
v  -0.0193 -0.2176 0.8362
v  -0.0185 -0.2180 0.8372
v  -0.0039 -0.2529 0.9117
v  -0.0097 -0.2077 0.8152
v  -0.0096 -0.2108 0.8216
v  -0.0219 -0.2082 0.8161
v  -0.0218 -0.2112 0.8226
v  -0.0333 -0.2090 0.8179
v  -0.0332 -0.2121 0.8245
v  -0.0431 -0.2102 0.8204
v  -0.0430 -0.2133 0.8272
v  -0.0580 -0.2125 0.8253
v  -0.0547 -0.2152 0.8312
v  -0.0187 -0.2176 0.8362
v  -0.0052 -0.2173 0.8357
v  -0.0255 -0.2129 0.8263
v  -0.0274 -0.2178 0.8366
v  -0.0302 -0.2133 0.8270
v  -0.0320 -0.2180 0.8372
v  -0.0341 -0.2136 0.8278
v  -0.0336 -0.2182 0.8376
v  -0.0366 -0.2139 0.8284
v  -0.0351 -0.2185 0.8383
v  -0.0385 -0.2141 0.8288
v  -0.0361 -0.2189 0.8390
v  -0.0403 -0.2143 0.8293
v  -0.0373 -0.2195 0.8402
v  -0.0436 -0.2148 0.8302
v  -0.0377 -0.2198 0.8410
v  -0.0475 -0.2154 0.8315
v  -0.0380 -0.2201 0.8417
v  -0.0513 -0.2160 0.8329
v  -0.0382 -0.2205 0.8425
v  -0.0530 -0.2164 0.8336
v  -0.0384 -0.2210 0.8436
v  -0.0513 -0.2173 0.8357
v  -0.0416 -0.2204 0.8423
v  -0.0490 -0.2183 0.8377
v  -0.0446 -0.2197 0.8407
v  -0.0361 -0.2321 0.8337
v  -0.0351 -0.2318 0.8330
v  -0.0430 -0.2266 0.8218
v  -0.0332 -0.2253 0.8192
v  -0.0373 -0.2327 0.8349
v  -0.0547 -0.2284 0.8259
v  -0.0580 -0.2257 0.8200
v  -0.0185 -0.2313 0.8319
v  -0.0039 -0.2661 0.9064
v  -0.0225 -0.2308 0.8310
v  -0.0193 -0.2308 0.8309
v  -0.0382 -0.2338 0.8372
v  -0.0380 -0.2334 0.8364
v  -0.0274 -0.2310 0.8313
v  -0.0320 -0.2313 0.8319
v  -0.0416 -0.2337 0.8370
v  -0.0384 -0.2342 0.8382
v  -0.0530 -0.2296 0.8283
v  -0.0513 -0.2305 0.8304
v  -0.0490 -0.2315 0.8324
v  -0.0446 -0.2329 0.8354
v  -0.0336 -0.2315 0.8323
v  -0.0096 -0.2240 0.8163
v  -0.0218 -0.2244 0.8173
# 363 vertices

vn 0.0596 0.9006 0.4306
vn 0.0568 0.9069 0.4175
vn -0.0000 0.9096 0.4154
vn 0.0000 0.9044 0.4268
vn 0.1143 0.8953 0.4306
vn 0.0944 0.9225 0.3744
vn 0.0491 0.9310 0.3616
vn 0.1692 0.8627 0.4766
vn 0.1290 0.8841 0.4491
vn 0.1249 0.8852 0.4482
vn -0.0684 0.8940 0.4428
vn -0.2240 0.9288 0.2951
vn -0.0504 0.9328 0.3568
vn 0.0560 0.8883 0.4558
vn 0.0732 0.9213 0.3820
vn -0.2468 0.9416 0.2289
vn -0.0802 0.9502 0.3011
vn 0.0729 0.9394 0.3349
vn 0.0591 0.9417 0.3312
vn 0.0317 0.9495 0.3122
vn 0.0386 0.9482 0.3152
vn 0.0414 0.9401 0.3383
vn 0.0343 0.9415 0.3352
vn 0.0000 0.9523 0.3051
vn 0.0000 0.9513 0.3084
vn 0.0300 0.9527 0.3025
vn 0.0323 0.9612 0.2741
vn 0.0411 0.9596 0.2784
vn 0.0456 0.9512 0.3053
vn 0.0358 0.9695 0.2424
vn 0.0361 0.9689 0.2447
vn 0.0218 0.9566 0.2906
vn 0.0165 0.9637 0.2666
vn 0.0000 0.9654 0.2606
vn 0.0000 0.9589 0.2836
vn 0.0106 0.9713 0.2377
vn -0.0000 0.9722 0.2342
vn 0.0518 0.9448 0.3234
vn 0.0273 0.9515 0.3065
vn 0.0483 0.9475 0.3161
vn 0.0247 0.9535 0.3005
vn 0.0000 0.9541 0.2996
vn 0.0000 0.9560 0.2933
vn 0.0304 0.9453 0.3248
vn 0.0292 0.9487 0.3147
vn 0.0328 0.9768 0.2115
vn 0.0069 0.9769 0.2138
vn -0.2677 0.9380 0.2202
vn -0.2606 0.9404 0.2184
vn -0.2111 0.9477 0.2393
vn -0.2191 0.9449 0.2434
vn -0.1110 0.9516 0.2867
vn -0.1073 0.9549 0.2770
vn -0.1078 0.9593 0.2610
vn -0.0990 0.9652 0.2420
vn -0.2560 0.9468 0.1951
vn -0.2600 0.9425 0.2102
vn -0.2059 0.9542 0.2169
vn -0.2084 0.9502 0.2317
vn -0.2401 0.9562 0.1673
vn -0.1912 0.9627 0.1912
vn -0.0795 0.9750 0.2075
vn -0.0442 0.9821 0.1833
vn -0.1997 0.9687 0.1475
vn -0.1541 0.9730 0.1717
vn -0.0638 0.9224 0.3810
vn -0.1129 0.9515 0.2862
vn -0.2874 0.9351 0.2075
vn -0.2522 0.9231 0.2904
vn -0.0991 0.8872 0.4506
vn 0.0772 0.8371 0.5416
vn 0.0890 0.8498 0.5196
vn 0.1709 0.7964 0.5801
vn 0.0554 0.8531 0.5187
vn 0.0343 0.9832 0.1792
vn 0.0085 0.9800 0.1990
vn 0.0401 0.9777 0.2062
vn 0.0466 0.9857 0.1617
vn -0.0000 0.9768 0.2143
vn 0.0000 0.9782 0.2075
vn 0.0227 0.9883 0.1507
vn 0.0163 0.9847 0.1734
vn 0.0399 0.9899 0.1357
vn 0.0444 0.9936 0.1041
vn -0.1421 0.9813 0.1296
vn -0.0966 0.9838 0.1513
vn -0.0058 0.9874 0.1579
vn 0.0203 0.9918 0.1260
vn -0.1004 0.9895 0.1040
vn -0.0465 0.9917 0.1201
vn -0.0291 0.9752 0.2193
vn 0.0017 0.9820 0.1889
vn 0.0305 0.9889 0.1455
vn 0.1514 0.8510 0.5029
vn -0.0689 0.9499 0.3047
vn -0.0621 0.9607 0.2705
vn -0.0512 0.9685 0.2439
vn -0.0665 0.9532 0.2949
vn -0.0654 0.9566 0.2841
vn -0.0341 0.9966 0.0748
vn -0.0712 0.9964 0.0452
vn 0.0338 0.9976 0.0598
vn 0.0415 0.9950 0.0910
vn -0.0000 0.9331 0.3595
vn 0.0000 0.9814 0.1921
vn 0.0520 0.9929 0.1067
vn 0.0532 0.9959 0.0725
vn -0.2029 0.9786 0.0333
vn -0.1228 0.9905 0.0621
vn -0.0132 0.9962 0.0856
vn 0.1007 0.9881 0.1165
vn -0.0000 0.9845 0.1753
vn 0.2321 0.8066 0.5436
vn 0.2112 0.7974 0.5653
vn 0.2148 0.8297 0.5152
vn 0.2033 0.7865 0.5831
vn 0.2485 0.7573 0.6039
vn 0.1448 0.8646 0.4812
vn 0.0663 0.8885 0.4540
vn 0.0000 0.8952 0.4457
vn -0.0000 0.9057 0.4240
vn -0.0000 0.9056 0.4241
vn 0.0001 0.9057 0.4240
vn -0.0001 0.9057 0.4240
vn 0.0001 0.9056 0.4241
vn 0.0001 0.9056 0.4242
vn -0.0001 0.9056 0.4241
vn -0.5268 -0.3169 0.7887
vn -0.5309 -0.3160 0.7863
vn -0.6969 -0.2674 0.6655
vn -0.6940 -0.2685 0.6681
vn -0.3205 -0.3532 0.8789
vn -0.2336 -0.3625 0.9022
vn -0.2345 -0.3625 0.9020
vn -0.3212 -0.3531 0.8787
vn -0.3531 -0.3488 0.8681
vn 0.8933 -0.1675 0.4170
vn 0.9457 -0.1211 0.3015
vn 0.9422 -0.1249 0.3109
vn 0.9802 -0.0738 0.1836
vn 0.9799 -0.0744 0.1851
vn 0.0444 -0.3725 0.9270
vn 0.0446 -0.3725 0.9270
vn -0.0545 -0.3723 0.9265
vn -0.0544 -0.3723 0.9265
vn -0.9515 -0.1147 0.2853
vn -0.9520 -0.1141 0.2839
vn -0.9767 -0.0800 0.1991
vn -0.9757 -0.0818 0.2035
vn 0.1454 0.3689 -0.9180
vn 0.1455 0.3689 -0.9180
vn 0.0997 0.3710 -0.9233
vn 0.0995 0.3710 -0.9233
vn -0.1048 -0.3708 0.9228
vn -0.1050 -0.3708 0.9227
vn -0.2238 -0.3634 0.9043
vn -0.2225 -0.3635 0.9046
vn 0.3983 -0.3420 0.8511
vn 0.4504 -0.3329 0.8285
vn 0.4520 -0.3326 0.8277
vn 0.7578 -0.2433 0.6054
vn 0.7551 -0.2445 0.6083
vn 0.8050 -0.2212 0.5505
vn 0.5544 -0.3103 0.7722
vn 0.5524 -0.3108 0.7734
vn 0.6531 -0.2824 0.7026
vn 0.6555 -0.2816 0.7008
vn -0.3608 -0.3478 0.8654
vn -0.3622 -0.3476 0.8649
vn -0.1328 -0.3696 0.9197
vn -0.1332 -0.3695 0.9196
vn -0.0440 -0.3725 0.9270
vn -0.0000 -0.3729 0.9279
vn -0.0441 -0.3725 0.9270
vn -0.0596 0.9006 0.4306
vn -0.0568 0.9069 0.4175
vn -0.1143 0.8953 0.4306
vn -0.0491 0.9310 0.3616
vn -0.0944 0.9225 0.3744
vn -0.1692 0.8627 0.4766
vn -0.1249 0.8852 0.4482
vn -0.1290 0.8841 0.4491
vn 0.0684 0.8940 0.4428
vn -0.0560 0.8883 0.4558
vn 0.0504 0.9328 0.3568
vn 0.2240 0.9288 0.2951
vn -0.0732 0.9213 0.3820
vn 0.0802 0.9502 0.3011
vn 0.2468 0.9416 0.2289
vn -0.0317 0.9495 0.3122
vn -0.0591 0.9417 0.3312
vn -0.0729 0.9394 0.3349
vn -0.0386 0.9482 0.3152
vn -0.0343 0.9415 0.3352
vn -0.0414 0.9401 0.3383
vn -0.0300 0.9527 0.3025
vn -0.0456 0.9512 0.3053
vn -0.0411 0.9596 0.2784
vn -0.0323 0.9612 0.2741
vn -0.0361 0.9689 0.2447
vn -0.0358 0.9695 0.2424
vn -0.0218 0.9566 0.2906
vn -0.0165 0.9637 0.2666
vn -0.0106 0.9713 0.2377
vn -0.0273 0.9515 0.3065
vn -0.0518 0.9448 0.3234
vn -0.0483 0.9475 0.3161
vn -0.0247 0.9535 0.3005
vn -0.0304 0.9453 0.3248
vn -0.0292 0.9487 0.3147
vn -0.0069 0.9769 0.2138
vn -0.0328 0.9768 0.2115
vn 0.2111 0.9477 0.2393
vn 0.2606 0.9404 0.2184
vn 0.2677 0.9380 0.2202
vn 0.2191 0.9449 0.2434
vn 0.1073 0.9549 0.2770
vn 0.1110 0.9516 0.2867
vn 0.2560 0.9468 0.1951
vn 0.0990 0.9652 0.2420
vn 0.1078 0.9593 0.2610
vn 0.2600 0.9425 0.2102
vn 0.2059 0.9542 0.2169
vn 0.2084 0.9502 0.2317
vn 0.1912 0.9627 0.1912
vn 0.2401 0.9562 0.1673
vn 0.0795 0.9750 0.2075
vn 0.1997 0.9687 0.1475
vn 0.0442 0.9821 0.1833
vn 0.1541 0.9730 0.1717
vn 0.0638 0.9224 0.3810
vn 0.2522 0.9231 0.2904
vn 0.2874 0.9351 0.2075
vn 0.1129 0.9515 0.2862
vn 0.0991 0.8872 0.4506
vn -0.0772 0.8371 0.5416
vn -0.0890 0.8498 0.5196
vn -0.0554 0.8531 0.5187
vn -0.1709 0.7964 0.5801
vn -0.0085 0.9800 0.1990
vn -0.0343 0.9832 0.1792
vn -0.0401 0.9777 0.2062
vn -0.0466 0.9857 0.1617
vn -0.0399 0.9899 0.1357
vn -0.0163 0.9847 0.1734
vn -0.0227 0.9883 0.1507
vn -0.0444 0.9936 0.1041
vn 0.0966 0.9838 0.1513
vn 0.1421 0.9813 0.1296
vn 0.0058 0.9874 0.1579
vn 0.1004 0.9895 0.1040
vn -0.0203 0.9918 0.1260
vn 0.0465 0.9917 0.1201
vn -0.0017 0.9820 0.1889
vn 0.0291 0.9752 0.2193
vn -0.0305 0.9889 0.1455
vn -0.1514 0.8510 0.5029
vn 0.0689 0.9499 0.3047
vn 0.0512 0.9685 0.2439
vn 0.0621 0.9607 0.2705
vn 0.0665 0.9532 0.2949
vn 0.0654 0.9566 0.2841
vn 0.0341 0.9966 0.0748
vn -0.0415 0.9950 0.0910
vn -0.0338 0.9976 0.0598
vn 0.0712 0.9964 0.0452
vn -0.0520 0.9929 0.1067
vn -0.0532 0.9959 0.0725
vn 0.0132 0.9962 0.0856
vn 0.1228 0.9905 0.0621
vn 0.2029 0.9786 0.0333
vn -0.1007 0.9881 0.1165
vn -0.2321 0.8066 0.5436
vn -0.2112 0.7974 0.5653
vn -0.2148 0.8297 0.5152
vn -0.2032 0.7865 0.5831
vn -0.2485 0.7573 0.6039
vn -0.1448 0.8646 0.4812
vn -0.0663 0.8885 0.4540
vn -0.0002 0.9056 0.4242
vn 0.5268 -0.3169 0.7887
vn 0.6940 -0.2685 0.6680
vn 0.6969 -0.2674 0.6654
vn 0.5309 -0.3160 0.7863
vn 0.3205 -0.3532 0.8789
vn 0.3212 -0.3531 0.8787
vn 0.2345 -0.3625 0.9020
vn 0.2336 -0.3625 0.9022
vn 0.8234 -0.2116 0.5265
vn 0.8274 -0.2094 0.5211
vn 0.3531 -0.3488 0.8681
vn -0.8933 -0.1675 0.4170
vn -0.9457 -0.1211 0.3015
vn -0.9799 -0.0744 0.1851
vn -0.9802 -0.0738 0.1836
vn -0.9422 -0.1249 0.3109
vn -0.0443 -0.3725 0.9270
vn 0.0544 -0.3723 0.9265
vn 0.0545 -0.3723 0.9265
vn -0.0446 -0.3725 0.9270
vn 0.9515 -0.1147 0.2854
vn 0.9757 -0.0818 0.2035
vn 0.9767 -0.0800 0.1991
vn 0.9520 -0.1141 0.2840
vn 0.1048 -0.3708 0.9228
vn 0.1050 -0.3708 0.9227
vn 0.2224 -0.3635 0.9046
vn 0.2238 -0.3634 0.9043
vn -0.3983 -0.3420 0.8511
vn -0.4520 -0.3326 0.8277
vn -0.4504 -0.3329 0.8285
vn -0.7578 -0.2433 0.6054
vn -0.8050 -0.2212 0.5505
vn -0.7551 -0.2445 0.6083
vn -0.5544 -0.3103 0.7722
vn -0.6555 -0.2816 0.7008
vn -0.6531 -0.2824 0.7026
vn -0.5524 -0.3108 0.7734
vn 0.3608 -0.3478 0.8654
vn 0.3621 -0.3476 0.8649
vn 0.0441 -0.3725 0.9270
vn 0.0440 -0.3725 0.9270
vn 0.1328 -0.3696 0.9197
vn 0.1332 -0.3695 0.9196
# 324 vertex normals

vt 0.5595 0.2711 0.0000
vt 0.5600 0.2891 0.0000
vt 0.4974 0.2850 0.0000
vt 0.4974 0.2671 0.0000
vt 0.6171 0.2970 0.0000
vt 0.6256 0.3323 0.0000
vt 0.5616 0.3244 0.0000
vt 0.6449 0.2880 0.0000
vt 0.6487 0.3038 0.0000
vt 0.6136 0.2796 0.0000
vt 0.6617 0.3070 0.0000
vt 0.6751 0.3397 0.0000
vt 0.6688 0.3383 0.0000
vt 0.6568 0.3060 0.0000
vt 0.6593 0.3367 0.0000
vt 0.6968 0.3935 0.0000
vt 0.6889 0.3925 0.0000
vt 0.6362 0.3840 0.0000
vt 0.6424 0.4161 0.0000
vt 0.5646 0.4055 0.0000
vt 0.5635 0.3745 0.0000
vt 0.6772 0.3905 0.0000
vt 0.6878 0.4232 0.0000
vt 0.4972 0.4009 0.0000
vt 0.4972 0.3699 0.0000
vt 0.6979 0.4553 0.0000
vt 0.7031 0.4738 0.0000
vt 0.6503 0.4670 0.0000
vt 0.6476 0.4488 0.0000
vt 0.7099 0.5004 0.0000
vt 0.6530 0.4931 0.0000
vt 0.5654 0.4390 0.0000
vt 0.5657 0.4588 0.0000
vt 0.4969 0.4547 0.0000
vt 0.4972 0.4346 0.0000
vt 0.5660 0.4855 0.0000
vt 0.4969 0.4817 0.0000
vt 0.6457 0.4352 0.0000
vt 0.5652 0.4245 0.0000
vt 0.6468 0.4420 0.0000
vt 0.5652 0.4319 0.0000
vt 0.4972 0.4199 0.0000
vt 0.4972 0.4273 0.0000
vt 0.6941 0.4420 0.0000
vt 0.6960 0.4488 0.0000
vt 0.6558 0.5268 0.0000
vt 0.5663 0.5178 0.0000
vt 0.7142 0.4270 0.0000
vt 0.7213 0.4455 0.0000
vt 0.7164 0.4449 0.0000
vt 0.7093 0.4262 0.0000
vt 0.7191 0.4275 0.0000
vt 0.7262 0.4460 0.0000
vt 0.7284 0.4528 0.0000
vt 0.7306 0.4594 0.0000
vt 0.7257 0.4588 0.0000
vt 0.7235 0.4523 0.0000
vt 0.7208 0.4583 0.0000
vt 0.7186 0.4515 0.0000
vt 0.7314 0.4781 0.0000
vt 0.7265 0.4773 0.0000
vt 0.7360 0.4792 0.0000
vt 0.7439 0.5070 0.0000
vt 0.7393 0.5059 0.0000
vt 0.7344 0.5048 0.0000
vt 0.6830 0.3416 0.0000
vt 0.7058 0.3952 0.0000
vt 0.7014 0.3944 0.0000
vt 0.6789 0.3405 0.0000
vt 0.6645 0.3079 0.0000
vt 0.6587 0.2921 0.0000
vt 0.6563 0.2915 0.0000
vt 0.6609 0.2929 0.0000
vt 0.6674 0.3087 0.0000
vt 0.6577 0.5633 0.0000
vt 0.5665 0.5516 0.0000
vt 0.7178 0.5353 0.0000
vt 0.7243 0.5747 0.0000
vt 0.4969 0.5129 0.0000
vt 0.4969 0.5456 0.0000
vt 0.5665 0.6163 0.0000
vt 0.5665 0.5812 0.0000
vt 0.6585 0.5956 0.0000
vt 0.6600 0.6274 0.0000
vt 0.7490 0.5412 0.0000
vt 0.7439 0.5402 0.0000
vt 0.7537 0.5421 0.0000
vt 0.7635 0.5839 0.0000
vt 0.7588 0.5831 0.0000
vt 0.7531 0.5818 0.0000
vt 0.7251 0.5029 0.0000
vt 0.7344 0.5382 0.0000
vt 0.7425 0.5788 0.0000
vt 0.6525 0.2904 0.0000
vt 0.7009 0.4251 0.0000
vt 0.7118 0.4569 0.0000
vt 0.7175 0.4757 0.0000
vt 0.7077 0.4439 0.0000
vt 0.7099 0.4504 0.0000
vt 0.7599 0.6250 0.0000
vt 0.7662 0.6318 0.0000
vt 0.7511 0.6283 0.0000
vt 0.7480 0.6198 0.0000
vt 0.4972 0.3204 0.0000
vt 0.4966 0.5752 0.0000
vt 0.7278 0.6125 0.0000
vt 0.7291 0.6278 0.0000
vt 0.7739 0.6324 0.0000
vt 0.7667 0.6280 0.0000
vt 0.7714 0.6294 0.0000
vt 0.7736 0.6315 0.0000
vt 0.4966 0.6114 0.0000
vt 0.6517 0.2880 0.0000
vt 0.6555 0.2891 0.0000
vt 0.6443 0.2858 0.0000
vt 0.6577 0.2896 0.0000
vt 0.6601 0.2904 0.0000
vt 0.6130 0.2768 0.0000
vt 0.5592 0.2684 0.0000
vt 0.4974 0.2643 0.0000
vt 2.7480 1.6281 0.0000
vt 2.7443 1.6306 0.0000
vt 2.7435 1.6301 0.0000
vt 2.7466 1.6270 0.0000
vt 2.7494 1.6343 0.0000
vt 2.7336 1.6590 0.0000
vt 2.7336 1.6582 0.0000
vt 2.7443 1.6312 0.0000
vt 0.1798 1.1424 0.0000
vt 0.1770 1.1424 0.0000
vt 0.1770 1.1402 0.0000
vt 0.1798 1.1402 0.0000
vt 0.1725 1.1430 0.0000
vt 0.1725 1.1405 0.0000
vt 0.1683 1.1436 0.0000
vt 0.1683 1.1410 0.0000
vt 0.1647 1.1447 0.0000
vt 0.1644 1.1421 0.0000
vt 0.1602 1.1461 0.0000
vt 0.1588 1.1438 0.0000
vt 2.7491 1.6332 0.0000
vt 2.7446 1.6306 0.0000
vt 2.7418 1.6292 0.0000
vt 2.7443 1.6261 0.0000
vt 2.7401 1.6284 0.0000
vt 2.7429 1.6253 0.0000
vt 2.7395 1.6281 0.0000
vt 2.7415 1.6247 0.0000
vt 2.7390 1.6281 0.0000
vt 2.7404 1.6244 0.0000
vt 2.7384 1.6281 0.0000
vt 2.7398 1.6242 0.0000
vt 2.7379 1.6284 0.0000
vt 2.7393 1.6242 0.0000
vt 2.7376 1.6284 0.0000
vt 2.7379 1.6236 0.0000
vt 2.7373 1.6287 0.0000
vt 2.7365 1.6233 0.0000
vt 2.7370 1.6289 0.0000
vt 2.7348 1.6230 0.0000
vt 2.7367 1.6292 0.0000
vt 2.7342 1.6230 0.0000
vt 2.7359 1.6281 0.0000
vt 2.7342 1.6239 0.0000
vt 2.7353 1.6270 0.0000
vt 2.7345 1.6250 0.0000
vt 0.7875 0.3215 0.0000
vt 0.7875 0.3167 0.0000
vt 0.7878 0.3164 0.0000
vt 0.7878 0.3213 0.0000
vt 0.6831 0.7196 0.0000
vt 0.6837 0.7233 0.0000
vt 0.6786 0.7233 0.0000
vt 0.6781 0.7196 0.0000
vt 0.6826 0.7151 0.0000
vt 0.6775 0.7151 0.0000
vt 2.8990 0.7843 0.0000
vt 2.9043 0.7843 0.0000
vt 2.9043 0.7868 0.0000
vt 2.8987 0.7868 0.0000
vt 0.5980 1.0741 0.0000
vt 0.6033 1.0738 0.0000
vt 0.6033 1.1048 0.0000
vt 0.5980 1.1050 0.0000
vt 0.7818 0.3218 0.0000
vt 0.7815 0.3169 0.0000
vt 0.7829 0.3169 0.0000
vt 0.7829 0.3218 0.0000
vt -0.0057 0.7550 0.0000
vt -0.0057 0.7603 0.0000
vt -0.0060 0.7603 0.0000
vt -0.0060 0.7550 0.0000
vt 0.2592 0.3359 0.0000
vt 0.2638 0.3353 0.0000
vt 0.2641 0.3375 0.0000
vt 0.2592 0.3380 0.0000
vt 0.7845 0.3218 0.0000
vt 0.7845 0.3169 0.0000
vt 0.7864 0.3167 0.0000
vt 0.7864 0.3215 0.0000
vt 2.8678 1.0593 0.0000
vt 2.8678 1.0542 0.0000
vt 2.8689 1.0545 0.0000
vt 2.8689 1.0596 0.0000
vt 2.4750 1.4136 0.0000
vt 2.4750 1.4082 0.0000
vt 2.4758 1.4082 0.0000
vt 2.4758 1.4136 0.0000
vt 2.8700 1.0598 0.0000
vt 2.8700 1.0548 0.0000
vt 2.8717 1.0553 0.0000
vt 2.8717 1.0604 0.0000
vt 0.7869 0.3215 0.0000
vt 0.7869 0.3167 0.0000
vt 0.6840 0.7275 0.0000
vt 0.6789 0.7275 0.0000
vt 0.6840 0.7323 0.0000
vt 0.6840 0.7348 0.0000
vt 0.6789 0.7348 0.0000
vt 0.6789 0.7323 0.0000
vt 0.4354 0.2709 0.0000
vt 0.4346 0.2888 0.0000
vt 0.3775 0.2964 0.0000
vt 0.4327 0.3242 0.0000
vt 0.3691 0.3318 0.0000
vt 0.3497 0.2875 0.0000
vt 0.3813 0.2790 0.0000
vt 0.3459 0.3032 0.0000
vt 0.3329 0.3065 0.0000
vt 0.3378 0.3051 0.0000
vt 0.3258 0.3375 0.0000
vt 0.3195 0.3389 0.0000
vt 0.3353 0.3361 0.0000
vt 0.3051 0.3916 0.0000
vt 0.2975 0.3927 0.0000
vt 0.4297 0.4052 0.0000
vt 0.3519 0.4156 0.0000
vt 0.3582 0.3835 0.0000
vt 0.4308 0.3742 0.0000
vt 0.3062 0.4224 0.0000
vt 0.3171 0.3897 0.0000
vt 0.2962 0.4545 0.0000
vt 0.3465 0.4479 0.0000
vt 0.3438 0.4664 0.0000
vt 0.2907 0.4727 0.0000
vt 0.3408 0.4925 0.0000
vt 0.2839 0.4993 0.0000
vt 0.4286 0.4387 0.0000
vt 0.4281 0.4585 0.0000
vt 0.4278 0.4852 0.0000
vt 0.4289 0.4243 0.0000
vt 0.3484 0.4346 0.0000
vt 0.3473 0.4414 0.0000
vt 0.4289 0.4316 0.0000
vt 0.3000 0.4411 0.0000
vt 0.2981 0.4477 0.0000
vt 0.4273 0.5176 0.0000
vt 0.3378 0.5263 0.0000
vt 0.2777 0.4441 0.0000
vt 0.2725 0.4447 0.0000
vt 0.2798 0.4259 0.0000
vt 0.2847 0.4254 0.0000
vt 0.2679 0.4452 0.0000
vt 0.2752 0.4267 0.0000
vt 0.2681 0.4577 0.0000
vt 0.2635 0.4585 0.0000
vt 0.2657 0.4517 0.0000
vt 0.2703 0.4512 0.0000
vt 0.2733 0.4572 0.0000
vt 0.2755 0.4507 0.0000
vt 0.2676 0.4762 0.0000
vt 0.2624 0.4770 0.0000
vt 0.2578 0.4781 0.0000
vt 0.2545 0.5048 0.0000
vt 0.2496 0.5059 0.0000
vt 0.2594 0.5037 0.0000
vt 0.3114 0.3408 0.0000
vt 0.3155 0.3397 0.0000
vt 0.2929 0.3935 0.0000
vt 0.2883 0.3944 0.0000
vt 0.3302 0.3070 0.0000
vt 0.3361 0.2915 0.0000
vt 0.3383 0.2907 0.0000
vt 0.3272 0.3081 0.0000
vt 0.3337 0.2921 0.0000
vt 0.4273 0.5513 0.0000
vt 0.3359 0.5625 0.0000
vt 0.2758 0.5344 0.0000
vt 0.2692 0.5736 0.0000
vt 0.3348 0.5951 0.0000
vt 0.4270 0.5810 0.0000
vt 0.4267 0.6160 0.0000
vt 0.3339 0.6273 0.0000
vt 0.2499 0.5391 0.0000
vt 0.2445 0.5402 0.0000
vt 0.2399 0.5410 0.0000
vt 0.2347 0.5820 0.0000
vt 0.2301 0.5829 0.0000
vt 0.2404 0.5807 0.0000
vt 0.2592 0.5372 0.0000
vt 0.2687 0.5021 0.0000
vt 0.2507 0.5777 0.0000
vt 0.3424 0.2896 0.0000
vt 0.2932 0.4243 0.0000
vt 0.2763 0.4749 0.0000
vt 0.2820 0.4561 0.0000
vt 0.2864 0.4430 0.0000
vt 0.2842 0.4496 0.0000
vt 0.2333 0.6239 0.0000
vt 0.2453 0.6188 0.0000
vt 0.2517 0.6293 0.0000
vt 0.2382 0.6305 0.0000
vt 0.2654 0.6114 0.0000
vt 0.2635 0.6297 0.0000
vt 0.2219 0.6283 0.0000
vt 0.2265 0.6266 0.0000
vt 0.2273 0.6309 0.0000
vt 0.2219 0.6287 0.0000
vt 0.3429 0.2875 0.0000
vt 0.3391 0.2885 0.0000
vt 0.3506 0.2850 0.0000
vt 0.3370 0.2891 0.0000
vt 0.3348 0.2896 0.0000
vt 0.3818 0.2763 0.0000
vt 0.4354 0.2681 0.0000
vt 2.7556 1.6329 0.0000
vt 2.7573 1.6340 0.0000
vt 2.7559 1.6379 0.0000
vt 2.7550 1.6374 0.0000
vt 2.7544 1.6374 0.0000
vt 2.7345 1.6588 0.0000
vt 0.1824 1.1402 0.0000
vt 0.1824 1.1424 0.0000
vt 0.1869 1.1405 0.0000
vt 0.1869 1.1430 0.0000
vt 0.1914 1.1410 0.0000
vt 0.1911 1.1436 0.0000
vt 0.1950 1.1421 0.0000
vt 0.1950 1.1447 0.0000
vt 0.2006 1.1438 0.0000
vt 0.1992 1.1461 0.0000
vt 2.7547 1.6371 0.0000
vt 2.7505 1.6343 0.0000
vt 2.7589 1.6354 0.0000
vt 2.7575 1.6391 0.0000
vt 2.7604 1.6365 0.0000
vt 2.7587 1.6402 0.0000
vt 2.7615 1.6377 0.0000
vt 2.7592 1.6408 0.0000
vt 2.7620 1.6382 0.0000
vt 2.7595 1.6413 0.0000
vt 2.7626 1.6388 0.0000
vt 2.7598 1.6416 0.0000
vt 2.7632 1.6394 0.0000
vt 2.7598 1.6422 0.0000
vt 2.7640 1.6402 0.0000
vt 2.7598 1.6427 0.0000
vt 2.7649 1.6416 0.0000
vt 2.7598 1.6430 0.0000
vt 2.7657 1.6427 0.0000
vt 2.7598 1.6433 0.0000
vt 2.7663 1.6433 0.0000
vt 2.7595 1.6436 0.0000
vt 2.7651 1.6436 0.0000
vt 2.7606 1.6438 0.0000
vt 2.7640 1.6438 0.0000
vt 2.7620 1.6438 0.0000
vt 1.7169 0.2590 0.0000
vt 1.7163 0.2588 0.0000
vt 1.7163 0.2537 0.0000
vt 1.7169 0.2540 0.0000
vt 0.6831 0.7500 0.0000
vt 0.6781 0.7500 0.0000
vt 0.6786 0.7463 0.0000
vt 0.6837 0.7463 0.0000
vt 0.2297 1.3776 0.0000
vt 0.2300 1.3776 0.0000
vt 0.2300 1.3829 0.0000
vt 0.2297 1.3829 0.0000
vt 0.6826 0.7545 0.0000
vt 0.6775 0.7545 0.0000
vt 1.8412 0.2242 0.0000
vt 1.8412 0.2216 0.0000
vt 1.8465 0.2216 0.0000
vt 1.8465 0.2242 0.0000
vt 0.7953 1.1166 0.0000
vt 0.7953 1.0856 0.0000
vt 0.8007 1.0859 0.0000
vt 0.8007 1.1168 0.0000
vt 1.7228 0.2593 0.0000
vt 1.7217 0.2593 0.0000
vt 1.7217 0.2543 0.0000
vt 1.7228 0.2543 0.0000
vt 0.2306 1.3776 0.0000
vt 0.2311 1.3776 0.0000
vt 0.2311 1.3829 0.0000
vt 0.2306 1.3829 0.0000
vt 1.7197 0.2593 0.0000
vt 1.7197 0.2543 0.0000
vt 1.7180 0.2590 0.0000
vt 1.7180 0.2540 0.0000
vt 2.8784 0.7472 0.0000
vt 2.8770 0.7474 0.0000
vt 2.8770 0.7424 0.0000
vt 2.8784 0.7421 0.0000
vt 2.1479 1.1698 0.0000
vt 2.1488 1.1698 0.0000
vt 2.1488 1.1751 0.0000
vt 2.1479 1.1751 0.0000
vt 2.8759 0.7477 0.0000
vt 2.8742 0.7483 0.0000
vt 2.8742 0.7432 0.0000
vt 2.8759 0.7427 0.0000
vt 1.7175 0.2590 0.0000
vt 1.7175 0.2540 0.0000
vt 0.6789 0.7373 0.0000
vt 0.6840 0.7373 0.0000
vt 0.6840 0.7421 0.0000
vt 0.6789 0.7421 0.0000
# 419 texture coords

o Cofre
g Cofre
usemtl Material__4
s 1
f 1/1/1 2/2/2 3/3/3 4/4/4 
f 5/5/5 6/6/6 7/7/7 2/2/2 
f 8/8/8 9/9/9 5/5/5 10/10/10 
f 11/11/11 12/12/12 13/13/13 14/14/14 
f 10/10/10 5/5/5 2/2/2 1/1/1 
f 9/9/9 15/15/15 6/6/6 5/5/5 
f 12/12/12 16/16/16 17/17/17 13/13/13 
f 18/18/18 19/19/19 20/20/20 21/21/21 
f 22/22/22 23/23/23 19/19/19 18/18/18 
f 15/15/15 22/22/22 18/18/18 6/6/6 
f 21/21/21 20/20/20 24/24/24 25/25/25 
f 26/26/26 27/27/27 28/28/28 29/29/29 
f 27/27/27 30/30/30 31/31/31 28/28/28 
f 32/32/32 33/33/33 34/34/34 35/35/35 
f 33/33/33 36/36/36 37/37/37 34/34/34 
f 29/29/29 28/28/28 33/33/33 32/32/32 
f 28/28/28 31/31/31 36/36/36 33/33/33 
f 19/19/19 38/38/38 39/39/39 20/20/20 
f 40/40/40 29/29/29 32/32/32 41/41/41 
f 20/20/20 39/39/39 42/42/42 24/24/24 
f 41/41/41 32/32/32 35/35/35 43/43/43 
f 23/23/23 44/44/44 38/38/38 19/19/19 
f 45/45/45 26/26/26 29/29/29 40/40/40 
f 31/31/31 46/46/46 47/47/47 36/36/36 
f 48/48/48 49/49/49 50/50/50 51/51/51 
f 52/52/52 53/53/53 49/49/49 48/48/48 
f 54/54/54 55/55/55 56/56/56 57/57/57 
f 57/57/57 56/56/56 58/58/58 59/59/59 
f 56/56/56 60/60/60 61/61/61 58/58/58 
f 55/55/55 62/62/62 60/60/60 56/56/56 
f 62/62/62 63/63/63 64/64/64 60/60/60 
f 60/60/60 64/64/64 65/65/65 61/61/61 
f 66/66/66 67/67/67 68/68/68 69/69/69 
f 70/70/70 69/69/69 12/12/12 11/11/11 
f 69/69/69 68/68/68 16/16/16 12/12/12 
f 67/67/67 52/52/52 48/48/48 68/68/68 
f 68/68/68 48/48/48 51/51/51 16/16/16 
f 71/71/71 70/70/70 11/11/11 72/72/72 
f 73/73/73 74/74/74 70/70/70 71/71/71 
f 46/46/46 75/75/75 76/76/76 47/47/47 
f 30/30/30 77/77/77 46/46/46 31/31/31 
f 77/77/77 78/78/78 75/75/75 46/46/46 
f 36/36/36 47/47/47 79/79/79 37/37/37 
f 47/47/47 76/76/76 80/80/80 79/79/79 
f 81/81/81 82/82/82 83/83/83 84/84/84 
f 64/64/64 85/85/85 86/86/86 65/65/65 
f 63/63/63 87/87/87 85/85/85 64/64/64 
f 87/87/87 88/88/88 89/89/89 85/85/85 
f 85/85/85 89/89/89 90/90/90 86/86/86 
f 91/91/91 92/92/92 77/77/77 30/30/30 
f 65/65/65 86/86/86 92/92/92 91/91/91 
f 86/86/86 90/90/90 93/93/93 92/92/92 
f 92/92/92 93/93/93 78/78/78 77/77/77 
f 94/94/94 14/14/14 9/9/9 8/8/8 
f 72/72/72 11/11/11 14/14/14 94/94/94 
f 14/14/14 13/13/13 15/15/15 9/9/9 
f 13/13/13 17/17/17 22/22/22 15/15/15 
f 16/16/16 51/51/51 95/95/95 17/17/17 
f 17/17/17 95/95/95 23/23/23 22/22/22 
f 96/96/96 97/97/97 27/27/27 26/26/26 
f 58/58/58 61/61/61 97/97/97 96/96/96 
f 61/61/61 65/65/65 91/91/91 97/97/97 
f 97/97/97 91/91/91 30/30/30 27/27/27 
f 95/95/95 98/98/98 44/44/44 23/23/23 
f 51/51/51 50/50/50 98/98/98 95/95/95 
f 59/59/59 58/58/58 96/96/96 99/99/99 
f 99/99/99 96/96/96 26/26/26 45/45/45 
f 100/100/100 101/101/101 102/102/102 103/103/103 
f 7/7/7 21/21/21 25/25/25 104/104/104 
f 6/6/6 18/18/18 21/21/21 7/7/7 
f 76/76/76 82/82/82 105/105/105 80/80/80 
f 74/74/74 66/66/66 69/69/69 70/70/70 
f 84/84/84 83/83/83 106/106/106 107/107/107 
f 93/93/93 103/103/103 106/106/106 78/78/78 
f 90/90/90 100/100/100 103/103/103 93/93/93 
f 103/103/103 102/102/102 107/107/107 106/106/106 
f 78/78/78 106/106/106 83/83/83 75/75/75 
f 108/108/108 109/109/109 110/110/110 111/111/111 
f 89/89/89 109/109/109 100/100/100 90/90/90 
f 88/88/88 110/110/110 109/109/109 89/89/89 
f 109/109/109 108/108/108 101/101/101 100/100/100 
f 112/112/112 105/105/105 82/82/82 81/81/81 
f 75/75/75 83/83/83 82/82/82 76/76/76 
f 2/2/2 7/7/7 104/104/104 3/3/3 
f 98/98/98 99/99/99 45/45/45 44/44/44 
f 50/50/50 59/59/59 99/99/99 98/98/98 
f 49/49/49 57/57/57 59/59/59 50/50/50 
f 53/53/53 54/54/54 57/57/57 49/49/49 
f 44/44/44 45/45/45 40/40/40 38/38/38 
f 39/39/39 41/41/41 43/43/43 42/42/42 
f 38/38/38 40/40/40 41/41/41 39/39/39 
f 113/113/113 114/114/114 72/72/72 94/94/94 
f 113/113/113 94/94/94 8/8/8 115/115/115 
f 116/116/116 117/117/117 73/73/73 71/71/71 
f 114/114/114 116/116/116 71/71/71 72/72/72 
f 118/118/118 10/10/10 1/1/1 119/119/119 
f 115/115/115 8/8/8 10/10/10 118/118/118 
f 119/119/119 1/1/1 4/4/4 120/120/120 
f 121/121/121 122/122/121 123/123/121 124/124/121 
f 125/125/122 126/126/121 127/127/121 128/128/122 
f 129/129/122 130/130/121 131/131/121 132/132/122 
f 130/130/121 133/133/121 134/134/121 131/131/121 
f 133/133/121 135/135/121 136/136/121 134/134/121 
f 135/135/121 137/137/121 138/138/121 136/136/121 
f 139/139/122 140/140/122 138/138/121 137/137/121 
f 121/121/121 141/141/122 142/142/121 122/122/121 
f 124/124/121 123/123/121 143/143/121 144/144/121 
f 125/125/122 128/128/122 142/142/121 141/141/122 
f 144/144/121 143/143/121 145/145/121 146/146/121 
f 146/146/121 145/145/121 147/147/123 148/148/123 
f 148/148/123 147/147/123 149/149/123 150/150/123 
f 150/150/123 149/149/123 151/151/124 152/152/121 
f 152/152/121 151/151/124 153/153/124 154/154/124 
f 154/154/124 153/153/124 155/155/125 156/156/122 
f 156/156/122 155/155/125 157/157/121 158/158/121 
f 158/158/121 157/157/121 159/159/121 160/160/121 
f 160/160/121 159/159/121 161/161/125 162/162/125 
f 162/162/125 161/161/125 163/163/126 164/164/126 
f 164/164/126 163/163/126 165/165/127 166/166/127 
f 149/167/128 167/168/129 168/169/130 151/170/131 
f 137/171/132 135/172/133 169/173/134 170/174/135 
f 139/175/136 137/171/132 170/174/135 171/176/136 
f 139/177/137 171/178/137 172/179/137 140/180/137 
f 127/181/138 173/182/139 174/183/140 128/184/141 
f 122/185/142 175/186/143 176/187/144 123/188/145 
f 157/189/146 177/190/147 178/191/148 159/192/149 
f 144/193/150 179/194/151 180/195/152 124/196/153 
f 143/197/154 181/198/155 182/199/156 145/200/157 
f 161/201/158 183/202/158 184/203/159 163/204/160 
f 164/205/161 185/206/162 186/207/163 162/208/163 
f 165/209/164 187/210/165 188/211/166 166/212/167 
f 163/204/160 184/203/159 187/210/165 165/209/164 
f 147/213/168 189/214/169 167/168/129 149/167/128 
f 135/172/133 133/215/170 190/216/171 169/173/134 
f 130/217/172 129/218/173 191/219/173 192/220/174 
f 193/221/175 4/4/4 3/3/3 194/222/176 
f 195/223/177 194/222/176 196/224/178 197/225/179 
f 198/226/180 199/227/181 195/223/177 200/228/182 
f 201/229/183 202/230/184 203/231/185 204/232/186 
f 199/227/181 193/221/175 194/222/176 195/223/177 
f 200/228/182 195/223/177 197/225/179 205/233/187 
f 206/234/188 207/235/189 204/232/186 203/231/185 
f 208/236/190 209/237/191 210/238/192 211/239/193 
f 209/237/191 212/240/194 213/241/195 210/238/192 
f 210/238/192 213/241/195 205/233/187 197/225/179 
f 24/24/24 208/236/190 211/239/193 25/25/25 
f 214/242/196 215/243/197 216/244/198 217/245/199 
f 218/246/200 219/247/201 217/245/199 216/244/198 
f 220/248/202 35/35/35 34/34/34 221/249/203 
f 37/37/37 222/250/204 221/249/203 34/34/34 
f 215/243/197 220/248/202 221/249/203 216/244/198 
f 222/250/204 218/246/200 216/244/198 221/249/203 
f 209/237/191 208/236/190 223/251/205 224/252/206 
f 220/248/202 215/243/197 225/253/207 226/254/208 
f 208/236/190 24/24/24 42/42/42 223/251/205 
f 35/35/35 220/248/202 226/254/208 43/43/43 
f 212/240/194 209/237/191 224/252/206 227/255/209 
f 215/243/197 214/242/196 228/256/210 225/253/207 
f 218/246/200 222/250/204 229/257/211 230/258/212 
f 231/259/213 232/260/214 233/261/215 234/262/216 
f 232/260/214 235/263/217 236/264/218 233/261/215 
f 237/265/219 238/266/220 239/267/221 240/268/222 
f 241/269/223 237/265/219 240/268/222 242/270/224 
f 243/271/225 244/272/226 237/265/219 241/269/223 
f 244/272/226 245/273/227 238/266/220 237/265/219 
f 246/274/228 247/275/229 245/273/227 244/272/226 
f 248/276/230 246/274/228 244/272/226 243/271/225 
f 249/277/231 250/278/232 251/279/233 252/280/234 
f 204/232/186 250/278/232 253/281/235 201/229/183 
f 250/278/232 204/232/186 207/235/189 251/279/233 
f 233/261/215 236/264/218 252/280/234 251/279/233 
f 234/262/216 233/261/215 251/279/233 207/235/189 
f 201/229/183 253/281/235 254/282/236 255/283/237 
f 253/281/235 256/284/238 257/285/239 254/282/236 
f 258/286/240 259/287/241 230/258/212 229/257/211 
f 219/247/201 218/246/200 230/258/212 260/288/242 
f 259/287/241 261/289/243 260/288/242 230/258/212 
f 222/250/204 37/37/37 79/79/79 229/257/211 
f 80/80/80 258/286/240 229/257/211 79/79/79 
f 262/290/244 263/291/245 264/292/246 265/293/247 
f 266/294/248 267/295/249 246/274/228 248/276/230 
f 267/295/249 268/296/250 247/275/229 246/274/228 
f 269/297/251 270/298/252 268/296/250 267/295/249 
f 271/299/253 269/297/251 267/295/249 266/294/248 
f 260/288/242 272/300/254 273/301/255 219/247/201 
f 272/300/254 266/294/248 248/276/230 273/301/255 
f 274/302/256 271/299/253 266/294/248 272/300/254 
f 261/289/243 274/302/256 272/300/254 260/288/242 
f 200/228/182 202/230/184 275/303/257 198/226/180 
f 202/230/184 201/229/183 255/283/237 275/303/257 
f 202/230/184 200/228/182 205/233/187 203/231/185 
f 213/241/195 206/234/188 203/231/185 205/233/187 
f 276/304/258 234/262/216 207/235/189 206/234/188 
f 212/240/194 276/304/258 206/234/188 213/241/195 
f 217/245/199 277/305/259 278/306/260 214/242/196 
f 277/305/259 243/271/225 241/269/223 278/306/260 
f 273/301/255 248/276/230 243/271/225 277/305/259 
f 219/247/201 273/301/255 277/305/259 217/245/199 
f 227/255/209 279/307/261 276/304/258 212/240/194 
f 279/307/261 231/259/213 234/262/216 276/304/258 
f 278/306/260 241/269/223 242/270/224 280/308/262 
f 214/242/196 278/306/260 280/308/262 228/256/210 
f 281/309/263 282/310/264 283/311/265 284/312/266 
f 25/25/25 211/239/193 196/224/178 104/104/104 
f 211/239/193 210/238/192 197/225/179 196/224/178 
f 258/286/240 80/80/80 105/105/105 263/291/245 
f 250/278/232 249/277/231 256/284/238 253/281/235 
f 285/313/267 262/290/244 265/293/247 286/314/268 
f 285/313/267 282/310/264 274/302/256 261/289/243 
f 282/310/264 281/309/263 271/299/253 274/302/256 
f 282/310/264 285/313/267 286/314/268 283/311/265 
f 261/289/243 259/287/241 262/290/244 285/313/267 
f 287/315/269 288/316/270 289/317/271 290/318/272 
f 281/309/263 288/316/270 269/297/251 271/299/253 
f 288/316/270 287/315/269 270/298/252 269/297/251 
f 288/316/270 281/309/263 284/312/266 289/317/271 
f 263/291/245 105/105/105 112/112/112 264/292/246 
f 259/287/241 258/286/240 263/291/245 262/290/244 
f 194/222/176 3/3/3 104/104/104 196/224/178 
f 228/256/210 280/308/262 279/307/261 227/255/209 
f 280/308/262 242/270/224 231/259/213 279/307/261 
f 242/270/224 240/268/222 232/260/214 231/259/213 
f 240/268/222 239/267/221 235/263/217 232/260/214 
f 225/253/207 228/256/210 227/255/209 224/252/206 
f 43/43/43 226/254/208 223/251/205 42/42/42 
f 226/254/208 225/253/207 224/252/206 223/251/205 
f 291/319/273 275/303/257 255/283/237 292/320/274 
f 198/226/180 275/303/257 291/319/273 293/321/275 
f 294/322/276 254/282/236 257/285/239 295/323/277 
f 292/320/274 255/283/237 254/282/236 294/322/276 
f 296/324/278 297/325/279 193/221/175 199/227/181 
f 293/321/275 296/324/278 199/227/181 198/226/180 
f 297/325/279 120/120/120 4/4/4 193/221/175 
f 298/326/121 299/327/121 300/328/121 301/329/121 
f 126/126/121 125/125/122 302/330/122 303/331/121 
f 129/129/122 132/132/122 304/332/121 305/333/121 
f 305/333/121 304/332/121 306/334/121 307/335/121 
f 307/335/121 306/334/121 308/336/121 309/337/121 
f 309/337/121 308/336/121 310/338/121 311/339/121 
f 311/339/121 310/338/121 312/340/122 313/341/122 
f 314/342/122 315/343/122 298/326/121 301/329/121 
f 299/327/121 316/344/121 317/345/121 300/328/121 
f 125/125/122 315/343/122 314/342/122 302/330/122 
f 316/344/121 318/346/121 319/347/121 317/345/121 
f 318/346/121 320/348/124 321/349/124 319/347/121 
f 320/348/124 322/350/124 323/351/124 321/349/124 
f 322/350/124 324/352/121 325/353/123 323/351/124 
f 324/352/121 326/354/123 327/355/123 325/353/123 
f 326/354/123 328/356/122 329/357/127 327/355/123 
f 328/356/122 330/358/121 331/359/121 329/357/127 
f 330/358/121 332/360/121 333/361/121 331/359/121 
f 332/360/121 334/362/127 335/363/122 333/361/121 
f 334/362/127 336/364/280 337/365/280 335/363/122 
f 336/364/280 338/366/125 339/367/125 337/365/280 
f 323/368/281 325/369/282 340/370/283 341/371/284 
f 311/372/285 342/373/286 343/374/287 309/375/288 
f 325/376/282 327/377/289 344/378/290 340/379/283 
f 313/380/291 345/381/291 342/373/286 311/372/285 
f 346/382/292 345/383/292 313/384/292 312/385/292 
f 303/386/293 302/387/294 347/388/295 348/389/296 
f 301/390/297 300/391/298 349/392/299 350/393/300 
f 331/394/301 333/395/302 351/396/303 352/397/304 
f 300/391/298 317/398/305 353/399/306 349/392/299 
f 317/398/305 319/400/307 354/401/308 353/399/306 
f 335/402/309 337/403/310 355/404/311 356/405/309 
f 336/406/312 334/407/313 357/408/313 358/409/314 
f 339/410/315 338/411/316 359/412/317 360/413/318 
f 319/400/307 321/414/319 361/415/320 354/401/308 
f 337/403/310 339/410/315 360/413/318 355/404/311 
f 362/416/321 305/417/322 307/418/323 363/419/324 
f 305/417/322 362/416/321 191/219/173 129/218/173 
# 271 polygons

